<svg xmlns="http://www.w3.org/2000/svg" width="45.155" height="21" viewBox="0 0 45.155 21">
  <path id="step_2_icon" d="M45.154,21h-9V17.25A6.283,6.283,0,0,0,33.2,12.075c.608-.052,1.071-.076,1.455-.076a19.516,19.516,0,0,1,6.561,1.314c1.8.72,3.938,1.986,3.938,3.937V21h0Zm-12,0H12V17.25c0-1.95,2.142-3.217,3.939-3.936A19.5,19.5,0,0,1,22.5,12h.155a19.512,19.512,0,0,1,6.561,1.314c1.8.72,3.939,1.986,3.939,3.937V21h0ZM0,21H0V17.25c0-1.95,2.142-3.217,3.939-3.936A19.493,19.493,0,0,1,10.5,12c.384,0,.847.023,1.455.076A6.285,6.285,0,0,0,9,17.25V21ZM30.155,4.5a4.505,4.505,0,0,1,4.5-4.5A4.48,4.48,0,0,1,39.14,4.5a4.492,4.492,0,1,1-8.985,0ZM22.577,9H22.5a4.48,4.48,0,0,1-4.486-4.5A4.48,4.48,0,0,1,22.5,0h.155A4.48,4.48,0,0,1,27.14,4.5,4.48,4.48,0,0,1,22.655,9ZM7.323,7.684a4.528,4.528,0,0,1,0-6.368A4.449,4.449,0,0,1,10.5,0a4.5,4.5,0,0,1,0,9A4.449,4.449,0,0,1,7.323,7.684Z" fill="#fff"/>
</svg>
