<svg xmlns="http://www.w3.org/2000/svg" width="35.938" height="25.156" viewBox="0 0 35.938 25.156">
  <path id="step_3_icon" d="M34.88,3.511A16.629,16.629,0,0,0,28.343,2.25c-6.916,0-13.832,3.5-20.748,3.5a17.037,17.037,0,0,1-5.2-.77,1.92,1.92,0,0,0-.581-.091A1.787,1.787,0,0,0,0,6.675V24.49a1.786,1.786,0,0,0,1.058,1.654,16.619,16.619,0,0,0,6.537,1.262c6.916,0,13.833-3.5,20.749-3.5a17.037,17.037,0,0,1,5.2.77,1.92,1.92,0,0,0,.581.091,1.787,1.787,0,0,0,1.811-1.786V5.166A1.788,1.788,0,0,0,34.88,3.511ZM2.7,7.878a19.541,19.541,0,0,0,3.522.5A3.6,3.6,0,0,1,2.7,11.273Zm0,16V21.2a3.593,3.593,0,0,1,3.577,3.448A13.565,13.565,0,0,1,2.7,23.881Zm15.274-3.662c-2.481,0-4.492-2.414-4.492-5.391s2.011-5.391,4.492-5.391,4.492,2.413,4.492,5.391S20.449,20.219,17.969,20.219Zm15.274,1.56a19.307,19.307,0,0,0-3.05-.474,3.586,3.586,0,0,1,3.05-2.767Zm0-13.258a3.587,3.587,0,0,1-3.134-3.456,13.5,13.5,0,0,1,3.134.711Z" transform="translate(0 -2.25)" fill="#fff"/>
</svg>
