<svg xmlns="http://www.w3.org/2000/svg" width="22.308" height="29.744" viewBox="0 0 22.308 29.744">
  <path id="step_4_icon" d="M19.519,3.718H14.872a3.718,3.718,0,1,0-7.436,0H2.788A2.789,2.789,0,0,0,0,6.506V26.955a2.789,2.789,0,0,0,2.788,2.788H19.519a2.789,2.789,0,0,0,2.788-2.788V6.506A2.789,2.789,0,0,0,19.519,3.718ZM5.577,24.632a1.394,1.394,0,1,1,1.394-1.394A1.391,1.391,0,0,1,5.577,24.632Zm0-5.577A1.394,1.394,0,1,1,6.971,17.66,1.391,1.391,0,0,1,5.577,19.055Zm0-5.577a1.394,1.394,0,1,1,1.394-1.394A1.391,1.391,0,0,1,5.577,13.478ZM11.154,2.324A1.394,1.394,0,1,1,9.76,3.718,1.391,1.391,0,0,1,11.154,2.324ZM18.59,23.7a.466.466,0,0,1-.465.465H9.76a.466.466,0,0,1-.465-.465v-.93a.466.466,0,0,1,.465-.465h8.365a.466.466,0,0,1,.465.465Zm0-5.577a.466.466,0,0,1-.465.465H9.76a.466.466,0,0,1-.465-.465V17.2a.466.466,0,0,1,.465-.465h8.365a.466.466,0,0,1,.465.465Zm0-5.577a.466.466,0,0,1-.465.465H9.76a.466.466,0,0,1-.465-.465v-.929a.466.466,0,0,1,.465-.465h8.365a.466.466,0,0,1,.465.465Z" fill="#fff"/>
</svg>
