<svg xmlns="http://www.w3.org/2000/svg" width="64.219" height="60.206" viewBox="0 0 64.219 60.206">
  <path id="cart" d="M26.653,58.041a6.021,6.021,0,1,1-6.021-6.021,6.021,6.021,0,0,1,6.021,6.021Zm40.137,0a6.021,6.021,0,1,1-6.021-6.021A6.021,6.021,0,0,1,66.79,58.041Zm0-26.089V7.87H18.626a4.014,4.014,0,0,0-4.014-4.014H2.571V7.87H10.6l3.015,25.842a8.026,8.026,0,0,0,5.012,14.3H66.79V43.993H18.626a4.014,4.014,0,0,1-4.014-4.014c0-.014,0-.027,0-.041L66.79,31.952Z" transform="translate(-2.571 -3.856)" fill="#fff"/>
</svg>
