<svg id="圖層_1" data-name="圖層 1" xmlns="http://www.w3.org/2000/svg" viewBox="0 0 774.94 1005.43"><defs><style>.cls-1{fill:#013b4f;}</style></defs><title>cheersright</title><path class="cls-1" d="M1336.47,199.27c0-92.47-75.23-167.7-167.7-167.7-87.46,0-159.48,67.3-167,152.82H561.53L563.37,540A65.81,65.81,0,0,0,582,585.83h0a65.81,65.81,0,0,1,18.58,45.83l-1.68,369.64A35.54,35.54,0,0,0,634.4,1037h466a35.54,35.54,0,0,0,35.54-35.38l1.68-370a65.81,65.81,0,0,1,18.58-45.83A65.81,65.81,0,0,0,1174.77,540l-.9-173.11C1264,364.18,1336.47,290,1336.47,199.27ZM837.17,948.72l-109.7-81.24,81.24-109.7L918.4,839ZM954.26,798.13l-39.67-77.61,77.61-39.67,39.67,77.61Zm185.2-355.81H599.31V221.44h540.15Zm34.21-114.27-.23-44.78h21.62L1181,204.6,1173.26,248l-.33-63.6h-70.56l46.3-8.27L1070,162.07v22.32h-29.25c7.4-64.09,62-114,128-114a129,129,0,0,1,128.89,128.89C1297.66,268.7,1242.48,325.47,1173.67,328.06Z" transform="translate(-561.53 -31.57)"/><polygon class="cls-1" points="603.44 56.83 617.49 135.51 631.54 56.83 603.44 56.83"/><polygon class="cls-1" points="536.35 92 601.92 137.7 556.22 72.13 536.35 92"/><polygon class="cls-1" points="631.94 146.32 710.62 160.37 710.62 132.27 631.94 146.32"/><polygon class="cls-1" points="673.22 230.28 693.09 210.4 627.52 164.71 673.22 230.28"/><polygon class="cls-1" points="671.23 72.96 625.53 138.53 691.1 92.83 671.23 72.96"/></svg>