<svg id="圖層_1" data-name="圖層 1" xmlns="http://www.w3.org/2000/svg" viewBox="0 0 621.91 947.07"><defs><style>.cls-1{fill:#013b4f;}</style></defs><title>cheersleft</title><path class="cls-1" d="M1170.82,299.91c-4.35-50.07-25.71-98.23-61.26-137.32-39.05-42.94-93.67-73.4-153.8-85.76a40.93,40.93,0,0,0-33.46,8.11,73.49,73.49,0,0,1-9.36,6.27l6.57-56.36L886,30.93,878.73,93.2a66.46,66.46,0,0,1-13.37-8.36,40.91,40.91,0,0,0-33.5-8.42c-60.62,12-115.75,42.37-155.24,85.45-36,39.23-57.55,87.64-61.92,138H580.95v56.77h38.11L714.4,978h355l95.34-621.32h38.11V299.91ZM943.08,111.51a7.29,7.29,0,0,1,5.88-1.64h0c53.19,10.94,101.36,37.72,135.64,75.41,30.33,33.35,48.22,72.65,52.38,114.62H888.61l19.94-171C922.68,125.56,934.7,118.06,943.08,111.51ZM701.5,184.67c34.67-37.83,83.3-64.52,136.93-75.16a7.3,7.3,0,0,1,5.88,1.69c7.5,6,18,12.73,30.4,16.49L854.64,299.91H648.54C652.73,257.66,670.81,218.14,701.5,184.67ZM846.1,373.13,831.44,499H675L655.72,373.13Zm80.26,384.69,33.42-96,96,33.42-33.42,96ZM826.83,896.47l-65.57-77.74L839,753.17l65.57,77.74Zm55.29-215.31-61.33-21.34,21.34-61.33,61.33,21.34ZM1108.77,499H865.4l14.67-125.84h248Z" transform="translate(-580.95 -30.93)"/></svg>