<svg xmlns="http://www.w3.org/2000/svg" width="11.973" height="7.982" viewBox="0 0 11.973 7.982">
  <g id="eyes_small" transform="translate(0 -2.594)">
    <path id="Icon_awesome-eye" data-name="Icon awesome-eye" d="M11.9,8.187A6.667,6.667,0,0,0,5.987,4.5,6.668,6.668,0,0,0,.072,8.188a.672.672,0,0,0,0,.607,6.667,6.667,0,0,0,5.914,3.687A6.668,6.668,0,0,0,11.9,8.794.672.672,0,0,0,11.9,8.187Zm-5.914,3.3A2.993,2.993,0,1,1,8.98,8.491,2.993,2.993,0,0,1,5.987,11.484Zm0-4.989a1.981,1.981,0,0,0-.526.079A.995.995,0,0,1,4.07,7.965,1.991,1.991,0,1,0,5.987,6.5Z" transform="translate(0 -1.906)" fill="#615e5e"/>
  </g>
</svg>
