<svg xmlns="http://www.w3.org/2000/svg" xmlns:xlink="http://www.w3.org/1999/xlink" width="92" height="62" viewBox="0 0 92 62">
  <defs>
    <clipPath id="clip-footer_logo">
      <rect width="92" height="62"/>
    </clipPath>
  </defs>
  <g id="footer_logo" clip-path="url(#clip-footer_logo)">
    <g id="logo" transform="translate(-0.167 -0.497)">
      <path id="Path_195" data-name="Path 195" d="M773,388.85A9.73,9.73,0,0,0,765.7,392a11.068,11.068,0,0,0,.017,15.2,10.04,10.04,0,0,0,14.591.014,11.189,11.189,0,0,0,0-15.245A9.685,9.685,0,0,0,773,388.85Z" transform="translate(-720.17 -361.937)" fill="none"/>
      <path id="Path_196" data-name="Path 196" d="M390.249,145.614V145.6l-.173-4.49-4.127,1.779a7.1,7.1,0,0,0-3.441,3.639,4.669,4.669,0,0,0,.06,3.845,2.936,2.936,0,0,0,.989,1.067,3.026,3.026,0,0,0,1.389.434,3.384,3.384,0,0,0,1.57-.27V145.61Z" transform="translate(-380.932 -141.1)" fill="#b3925b"/>
      <path id="Path_197" data-name="Path 197" d="M380.367,182.59a7.126,7.126,0,0,1-1.807,4.661,5.734,5.734,0,0,1-1.925,1.332v29.928q0,5.345-3.314,5.345a5.758,5.758,0,0,1-2.28-.543V239.6a17.055,17.055,0,0,0,5.138.953,15.715,15.715,0,0,0,12.388-5.614q4.89-5.614,4.887-14.232V182.592Z" transform="translate(-371.05 -178.076)" fill="#b3925b"/>
      <path id="Path_198" data-name="Path 198" d="M773,388.85A9.73,9.73,0,0,0,765.7,392a11.068,11.068,0,0,0,.017,15.2,10.04,10.04,0,0,0,14.591.014,11.189,11.189,0,0,0,0-15.245A9.685,9.685,0,0,0,773,388.85Z" transform="translate(-720.17 -361.937)" fill="none"/>
      <path id="Path_199" data-name="Path 199" d="M968.128,620.36a26.155,26.155,0,0,1-2.6,3.022,24.651,24.651,0,0,1-6.382,4.655,3.588,3.588,0,0,0,1.475,2.077,3.414,3.414,0,0,0,1.582.493,5.315,5.315,0,0,0,3.982-1.826,8.125,8.125,0,0,0,2.063-5.321Z" transform="translate(-895.296 -568.307)" fill="#b3925b"/>
      <path id="Path_200" data-name="Path 200" d="M667.317,305.074a8.114,8.114,0,0,1,3.92-4.152l4.7-2.025.077,2.018a24.8,24.8,0,0,0-.4-29.218v4.752h-6.826V265.443A22.839,22.839,0,0,0,656.425,262a24.321,24.321,0,0,0-17.729,7.126A24.559,24.559,0,0,0,656.019,311.1a24.14,24.14,0,0,0,11.022-2.505A5.957,5.957,0,0,1,667.317,305.074Zm-3.99-10.919a10.036,10.036,0,0,1-14.589-.012,11.068,11.068,0,0,1-.017-15.2,10.065,10.065,0,0,1,14.612-.014,11.161,11.161,0,0,1-.005,15.229Z" transform="translate(-603.182 -248.862)" fill="#b3925b"/>
      <path id="Path_201" data-name="Path 201" d="M982.089,201.811V183.6H975.26v11.956a25.561,25.561,0,0,1,4.684,3.789A27.171,27.171,0,0,1,982.089,201.811Z" transform="translate(-909.656 -178.976)" fill="#b3925b"/>
      <path id="Path_202" data-name="Path 202" d="M1090.64,180.618a7.6,7.6,0,0,0-5.946-2.288,8.086,8.086,0,0,0-8.594,8.63v14.9h6.831V187.2q0-2.1,1.446-2.1,1.5,0,1.5,2.1v14.665h6.829V187.2Q1092.7,182.906,1090.64,180.618Z" transform="translate(-999.546 -174.278)" fill="#b3925b"/>
    </g>
  </g>
</svg>
