<svg xmlns="http://www.w3.org/2000/svg" width="276.147" height="116" viewBox="0 0 276.147 116">
  <g id="Group_1454" data-name="Group 1454" transform="translate(-1103 -2017)">
    <g id="Group_1439" data-name="Group 1439" transform="translate(549 1597)">
      <g id="Group_1438" data-name="Group 1438" transform="translate(554 420)">
        <g id="Group_1435" data-name="Group 1435" transform="translate(194.151)">
          <path id="Path_1106" data-name="Path 1106" d="M484.642,271.1h-62.9c0,6.69-4.755,12.113-10.621,12.113v91.774c5.866,0,10.621,5.423,10.621,12.113h62.9c4.681,0,8.477-4.327,8.477-9.668V280.768C493.119,275.429,489.323,271.1,484.642,271.1Z" transform="translate(-411.122 -271.101)" fill="#b3925b"/>
          <g id="Group_1434" data-name="Group 1434" transform="translate(6.575 29.101)">
            <path id="Path_1107" data-name="Path 1107" d="M427.407,310.167l-.5,5.119,4.074,2.484-4.295.439-.054,4.946-2.452-4.282-4.4.973,3.076-3.487-2.714-3.822,4.4,1.606Z" transform="translate(-419.773 -309.575)" fill="#fff"/>
            <path id="Path_1108" data-name="Path 1108" d="M504.331,309.388l1.164,1.747,1.9-.6-1.211,1.575,1.257,1.542-1.86-.5-1.107,1.776.051-2.106-1.822-.269,1.771-.98Z" transform="translate(-439.667 -309.388)" fill="#fff"/>
            <path id="Path_1109" data-name="Path 1109" d="M506.995,401.751l1.518,2.279,2.474-.782-1.58,2.055,1.641,2.011-2.426-.65-1.444,2.316.066-2.746-2.376-.35,2.309-1.278Z" transform="translate(-440.187 -331.547)" fill="#fff"/>
            <path id="Path_1110" data-name="Path 1110" d="M501.826,345.718l-.5,5.119,4.074,2.484-4.3.439-.054,4.945-2.452-4.281-4.4.973,3.076-3.487-2.713-3.823,4.4,1.606Z" transform="translate(-437.626 -318.104)" fill="#fff"/>
            <path id="Path_1111" data-name="Path 1111" d="M421.87,389.348l1.164,1.747,1.9-.6-1.211,1.574,1.258,1.543-1.859-.5-1.108,1.776.051-2.106-1.822-.269,1.77-.978Z" transform="translate(-419.884 -328.571)" fill="#fff"/>
            <path id="Path_1112" data-name="Path 1112" d="M428.4,347.466l1.518,2.279,2.474-.782-1.58,2.054,1.64,2.013-2.426-.65L428.58,354.7l.066-2.747-2.376-.351,2.309-1.277Z" transform="translate(-421.331 -318.523)" fill="#fff"/>
          </g>
        </g>
        <path id="Path_1113" data-name="Path 1113" d="M349.841,374.988V283.214c-5.484,0-9.929-5.423-9.929-12.113H165.622c0,6.69-4.446,12.113-9.931,12.113v91.774c5.485,0,9.931,5.423,9.931,12.113H339.912C339.912,380.411,344.357,374.988,349.841,374.988Z" transform="translate(-155.691 -271.101)" fill="#013b4f"/>
        <g id="Group_1437" data-name="Group 1437" transform="translate(10.087 14.641)">
          <g id="Group_1436" data-name="Group 1436" transform="translate(0)">
            <path id="Path_1114" data-name="Path 1114" d="M171.1,295.212l1.527,2.009,2.487-.69-1.588,1.811,1.649,1.773-2.439-.573-1.451,2.042.066-2.422-2.389-.309,2.322-1.126Z" transform="translate(-168.961 -291.527)" fill="#b3925b"/>
            <path id="Path_1115" data-name="Path 1115" d="M309.453,290.364l1.171,1.54,1.906-.529-1.217,1.389,1.264,1.36-1.87-.44-1.112,1.565.05-1.857-1.832-.238,1.78-.862Z" transform="translate(-202.273 -290.364)" fill="#b3925b"/>
            <path id="Path_1116" data-name="Path 1116" d="M375.189,308.3l1.527,2.009,2.487-.69-1.588,1.811,1.648,1.773-2.438-.573-1.451,2.042.065-2.422-2.388-.309,2.322-1.126Z" transform="translate(-217.924 -294.668)" fill="#b3925b"/>
            <path id="Path_1117" data-name="Path 1117" d="M423.78,352.17l1.171,1.54,1.906-.528-1.217,1.388,1.264,1.36-1.87-.439-1.112,1.565.05-1.857-1.831-.237,1.78-.863Z" transform="translate(-229.702 -305.191)" fill="#b3925b"/>
          </g>
        </g>
        <text id="_30_" data-name="30%" transform="translate(20.886 70.803)" fill="#b3925b" font-size="55" font-family="ErasITC-Medium, Eras ITC" font-weight="500" letter-spacing="0.2em"><tspan x="0" y="0">30%</tspan></text>
        <text id="OFF" transform="translate(134.913 99.71)" fill="#b3925b" font-size="20" font-family="Ebrima"><tspan x="0" y="0">OFF</tspan></text>
      </g>
      <path id="drink" d="M4.5,3,7.383,29.149a2.872,2.872,0,0,0,2.854,2.539H24.582a2.872,2.872,0,0,0,2.854-2.539L30.319,3ZM17.41,27.385a4.3,4.3,0,0,1-4.3-4.3c0-2.869,4.3-7.746,4.3-7.746s4.3,4.877,4.3,7.746A4.3,4.3,0,0,1,17.41,27.385Zm9.08-15.778H8.33L7.7,5.869H27.106Z" transform="translate(770.169 460.828)" fill="#013b4f"/>
    </g>
  </g>
</svg>
