<svg xmlns="http://www.w3.org/2000/svg" width="207" height="41" viewBox="0 0 207 41">
  <g id="Group_1444" data-name="Group 1444" transform="translate(-1041 -216)">
    <rect id="Rectangle_1591" data-name="Rectangle 1591" width="207" height="41" rx="10" transform="translate(1041 216)" fill="#013b4f"/>
    <text id="取得優惠卷" transform="translate(1090 244)" fill="#fff" font-size="21" font-family="YuGothicUI-Regular, Yu Gothic UI" letter-spacing="0.2em"><tspan x="0" y="0">取得優惠卷</tspan></text>
    <path id="Icon_awesome-gamepad" data-name="Icon awesome-gamepad" d="M20.19,6.75H6.73a6.73,6.73,0,1,0,4.8,11.441h3.849A6.729,6.729,0,1,0,20.19,6.75Zm-9.422,7.571a.506.506,0,0,1-.5.5H8.076v2.187a.506.506,0,0,1-.5.5H5.889a.506.506,0,0,1-.5-.5V14.826H3.2a.506.506,0,0,1-.5-.5V12.639a.506.506,0,0,1,.5-.5H5.384V9.947a.506.506,0,0,1,.5-.5H7.571a.506.506,0,0,1,.5.5v2.187h2.187a.506.506,0,0,1,.5.5Zm7.74,2.86a2.019,2.019,0,1,1,2.019-2.019A2.02,2.02,0,0,1,18.508,17.182Zm3.365-3.365A2.019,2.019,0,1,1,23.892,11.8,2.02,2.02,0,0,1,21.873,13.817Z" transform="translate(1050 222.887)" fill="#fff"/>
    <g id="Icon_feather-external-link" data-name="Icon feather-external-link" transform="translate(1219.5 225.137)">
      <path id="Path_6" data-name="Path 6" d="M15.972,14.354v4.589a1.53,1.53,0,0,1-1.53,1.53H6.03a1.53,1.53,0,0,1-1.53-1.53V10.53A1.53,1.53,0,0,1,6.03,9h4.589" transform="translate(0 -2.206)" fill="none" stroke="#fff" stroke-linecap="round" stroke-linejoin="round" stroke-width="2"/>
      <path id="Path_7" data-name="Path 7" d="M22.5,4.5h4.589V9.089" transform="translate(-8.822)" fill="none" stroke="#fff" stroke-linecap="round" stroke-linejoin="round" stroke-width="2"/>
      <path id="Path_8" data-name="Path 8" d="M15,12.913,23.413,4.5" transform="translate(-5.146)" fill="none" stroke="#fff" stroke-linecap="round" stroke-linejoin="round" stroke-width="2"/>
    </g>
  </g>
</svg>
