<svg xmlns="http://www.w3.org/2000/svg" width="17.059" height="19" viewBox="0 0 17.059 19">
  <path id="group_list" d="M14.926,2.375H11.373A2.643,2.643,0,0,0,8.529,0,2.643,2.643,0,0,0,5.686,2.375H2.132A1.981,1.981,0,0,0,0,4.156V17.219A1.981,1.981,0,0,0,2.132,19H14.926a1.981,1.981,0,0,0,2.132-1.781V4.156A1.981,1.981,0,0,0,14.926,2.375ZM4.265,15.734A.988.988,0,0,1,3.2,14.844a.988.988,0,0,1,1.066-.891.988.988,0,0,1,1.066.891A.988.988,0,0,1,4.265,15.734Zm0-3.562A.988.988,0,0,1,3.2,11.281a.988.988,0,0,1,1.066-.891.988.988,0,0,1,1.066.891A.988.988,0,0,1,4.265,12.172Zm0-3.562A.988.988,0,0,1,3.2,7.719a.988.988,0,0,1,1.066-.891.988.988,0,0,1,1.066.891A.988.988,0,0,1,4.265,8.609ZM8.529,1.484A.988.988,0,0,1,9.6,2.375a.988.988,0,0,1-1.066.891.988.988,0,0,1-1.066-.891A.988.988,0,0,1,8.529,1.484Zm5.686,13.656a.331.331,0,0,1-.355.3h-6.4a.331.331,0,0,1-.355-.3v-.594a.331.331,0,0,1,.355-.3h6.4a.331.331,0,0,1,.355.3Zm0-3.562a.331.331,0,0,1-.355.3h-6.4a.331.331,0,0,1-.355-.3v-.594a.331.331,0,0,1,.355-.3h6.4a.331.331,0,0,1,.355.3Zm0-3.562a.331.331,0,0,1-.355.3h-6.4a.331.331,0,0,1-.355-.3V7.422a.331.331,0,0,1,.355-.3h6.4a.331.331,0,0,1,.355.3Z" fill="#b3925b"/>
</svg>
