<svg xmlns="http://www.w3.org/2000/svg" width="41.096" height="36.529" viewBox="0 0 41.096 36.529">
  <path id="group_white" d="M29.968,32.633V30.75a10.2,10.2,0,0,0,4.566-8.484c0-5.674,0-10.274-6.846-10.274s-6.846,4.6-6.846,10.274A10.2,10.2,0,0,0,25.41,30.75v1.883c-7.745.633-13.7,4.44-13.7,9.039H43.666c0-4.6-5.954-8.406-13.7-9.039Zm-15.727.882a21.691,21.691,0,0,1,7.123-2.868,12.879,12.879,0,0,1-1.444-2.105,13.073,13.073,0,0,1-1.659-6.275c0-3.069,0-5.969,1.092-8.339a7.433,7.433,0,0,1,5.68-4.263c-.6-2.728-2.21-4.522-6.486-4.522-6.846,0-6.846,4.6-6.846,10.274A10.2,10.2,0,0,0,16.269,23.9v1.883c-7.745.633-13.7,4.44-13.7,9.039h9.954a14.623,14.623,0,0,1,1.719-1.308Z" transform="translate(-2.57 -5.143)" fill="#fff"/>
</svg>
