<svg xmlns="http://www.w3.org/2000/svg" width="17.346" height="17.346" viewBox="0 0 17.346 17.346">
  <path id="Icon_awesome-arrow-alt-circle-left" data-name="Icon awesome-arrow-alt-circle-left" d="M9.236,17.909a8.673,8.673,0,1,1,8.673-8.673A8.672,8.672,0,0,1,9.236,17.909ZM13.292,7.7H9.236V5.217a.42.42,0,0,0-.717-.3l-4,4.018a.416.416,0,0,0,0,.591l4,4.018a.42.42,0,0,0,.717-.3V10.774h4.057a.421.421,0,0,0,.42-.42V8.116A.421.421,0,0,0,13.292,7.7Z" transform="translate(-0.563 -0.563)" fill="#b3925b"/>
</svg>
