<svg xmlns="http://www.w3.org/2000/svg" width="36.5" height="32.444" viewBox="0 0 36.5 32.444">
  <path id="joindrinklist_group" d="M26.9,29.559V27.887a9.057,9.057,0,0,0,4.056-7.535c0-5.04,0-9.125-6.083-9.125s-6.083,4.085-6.083,9.125a9.057,9.057,0,0,0,4.056,7.535v1.672c-6.879.562-12.167,3.942-12.167,8.028H39.071c0-4.086-5.288-7.466-12.167-8.028Zm-13.966.783a19.265,19.265,0,0,1,6.33-2.548,11.439,11.439,0,0,1-1.283-1.87,11.611,11.611,0,0,1-1.473-5.573c0-2.726,0-5.3.97-7.406a6.6,6.6,0,0,1,5.045-3.786c-.536-2.423-1.962-4.016-5.761-4.016-6.083,0-6.083,4.085-6.083,9.125A9.057,9.057,0,0,0,14.738,21.8v1.672C7.859,24.038,2.571,27.418,2.571,31.5h8.84a12.989,12.989,0,0,1,1.527-1.162Z" transform="translate(-2.571 -5.143)" fill="#b3925b"/>
</svg>
