<svg xmlns="http://www.w3.org/2000/svg" width="70" height="47.385" viewBox="0 0 70 47.385">
  <g id="logo-header" transform="translate(0.01 -0.01)">
    <path id="Path_195" data-name="Path 195" d="M770.512,388.849a7.381,7.381,0,0,0-5.535,2.389,8.4,8.4,0,0,0,.013,11.532,7.616,7.616,0,0,0,11.068.011,8.487,8.487,0,0,0,0-11.564A7.347,7.347,0,0,0,770.512,388.849Z" transform="translate(-730.833 -368.433)" fill="none"/>
    <path id="Path_196" data-name="Path 196" d="M388.287,144.527v-.011l-.131-3.406-3.13,1.349a5.389,5.389,0,0,0-2.61,2.76,3.542,3.542,0,0,0,.045,2.917,2.227,2.227,0,0,0,.75.81,2.3,2.3,0,0,0,1.054.329,2.567,2.567,0,0,0,1.191-.205v-4.547Z" transform="translate(-381.223 -141.1)" fill="#b3925b"/>
    <path id="Path_197" data-name="Path 197" d="M378.115,182.59a5.406,5.406,0,0,1-1.371,3.535,4.349,4.349,0,0,1-1.46,1.011v22.7q0,4.054-2.514,4.054a4.368,4.368,0,0,1-1.73-.412v12.355a12.938,12.938,0,0,0,3.9.723,11.921,11.921,0,0,0,9.4-4.259,15.833,15.833,0,0,0,3.707-10.8V182.592Z" transform="translate(-371.05 -179.163)" fill="#b3925b"/>
    <path id="Path_198" data-name="Path 198" d="M770.512,388.849a7.381,7.381,0,0,0-5.535,2.389,8.4,8.4,0,0,0,.013,11.532,7.616,7.616,0,0,0,11.068.011,8.487,8.487,0,0,0,0-11.564A7.347,7.347,0,0,0,770.512,388.849Z" transform="translate(-730.833 -368.433)" fill="none"/>
    <path id="Path_199" data-name="Path 199" d="M965.96,620.36a19.85,19.85,0,0,1-1.97,2.292,18.7,18.7,0,0,1-4.841,3.531,2.721,2.721,0,0,0,1.119,1.576,2.59,2.59,0,0,0,1.2.374,4.032,4.032,0,0,0,3.021-1.385,6.163,6.163,0,0,0,1.565-4.036Z" transform="translate(-911.226 -580.873)" fill="#b3925b"/>
    <path id="Path_200" data-name="Path 200" d="M658.656,294.673a6.155,6.155,0,0,1,2.974-3.149l3.565-1.536.058,1.53a18.812,18.812,0,0,0-.306-22.163v3.6H659.77v-8.348A17.324,17.324,0,0,0,650.395,262a18.448,18.448,0,0,0-13.448,5.405,18.629,18.629,0,0,0,13.14,31.841,18.312,18.312,0,0,0,8.361-1.9A4.518,4.518,0,0,1,658.656,294.673Zm-3.026-8.282a7.613,7.613,0,0,1-11.067-.009,8.4,8.4,0,0,1-.013-11.532,7.635,7.635,0,0,1,11.084-.011,8.466,8.466,0,0,1,0,11.552Z" transform="translate(-610.441 -252.032)" fill="#b3925b"/>
    <path id="Path_201" data-name="Path 201" d="M980.44,197.414V183.6h-5.18v9.069a19.39,19.39,0,0,1,3.553,2.874A20.613,20.613,0,0,1,980.44,197.414Z" transform="translate(-926.01 -180.09)" fill="#b3925b"/>
    <path id="Path_202" data-name="Path 202" d="M1087.129,180.066a5.765,5.765,0,0,0-4.51-1.736,6.134,6.134,0,0,0-6.519,6.546v11.305h5.181V185.057q0-1.595,1.1-1.595,1.135,0,1.136,1.595v11.124h5.18V185.057A7.208,7.208,0,0,0,1087.129,180.066Z" transform="translate(-1018.705 -175.254)" fill="#b3925b"/>
  </g>
</svg>
