<svg xmlns="http://www.w3.org/2000/svg" width="118.32" height="79.333" viewBox="0 0 118.32 79.333">
  <g id="logo" transform="translate(0.01 -0.01)">
    <path id="Path_195" data-name="Path 195" d="M775.786,388.849a12.357,12.357,0,0,0-9.267,4,14.056,14.056,0,0,0,.022,19.307,12.75,12.75,0,0,0,18.529.018,14.21,14.21,0,0,0,0-19.361A12.3,12.3,0,0,0,775.786,388.849Z" transform="translate(-708.688 -354.674)" fill="none"/>
    <path id="Path_196" data-name="Path 196" d="M392.442,146.83v-.018l-.219-5.7-5.241,2.259a9.023,9.023,0,0,0-4.37,4.621,5.93,5.93,0,0,0,.076,4.883,3.728,3.728,0,0,0,1.256,1.356,3.843,3.843,0,0,0,1.764.552,4.3,4.3,0,0,0,1.994-.343v-7.613Z" transform="translate(-380.607 -141.1)" fill="#013b4f"/>
    <path id="Path_197" data-name="Path 197" d="M382.885,182.59a9.05,9.05,0,0,1-2.295,5.919,7.282,7.282,0,0,1-2.445,1.692v38.008q0,6.788-4.209,6.788a7.312,7.312,0,0,1-2.9-.69v20.685a21.66,21.66,0,0,0,6.524,1.211,19.958,19.958,0,0,0,15.733-7.13q6.21-7.13,6.206-18.074V182.593Z" transform="translate(-371.05 -176.86)" fill="#013b4f"/>
    <path id="Path_198" data-name="Path 198" d="M775.786,388.849a12.357,12.357,0,0,0-9.267,4,14.056,14.056,0,0,0,.022,19.307,12.75,12.75,0,0,0,18.529.018,14.21,14.21,0,0,0,0-19.361A12.3,12.3,0,0,0,775.786,388.849Z" transform="translate(-708.688 -354.674)" fill="none"/>
    <path id="Path_199" data-name="Path 199" d="M970.552,620.36a33.216,33.216,0,0,1-3.3,3.838,31.308,31.308,0,0,1-8.1,5.912,4.553,4.553,0,0,0,1.873,2.638,4.337,4.337,0,0,0,2.009.626,6.75,6.75,0,0,0,5.057-2.318,10.319,10.319,0,0,0,2.62-6.758Z" transform="translate(-878.054 -554.257)" fill="#013b4f"/>
    <path id="Path_200" data-name="Path 200" d="M677,316.7a10.3,10.3,0,0,1,4.979-5.272l5.969-2.572.1,2.562a31.5,31.5,0,0,0-.512-37.106v6.035h-8.669V266.373a29.005,29.005,0,0,0-15.7-4.373,30.887,30.887,0,0,0-22.515,9.05,31.19,31.19,0,0,0,22,53.309,30.658,30.658,0,0,0,14-3.182A7.565,7.565,0,0,1,677,316.7Zm-5.067-13.867a12.746,12.746,0,0,1-18.528-.015,14.056,14.056,0,0,1-.022-19.307,12.782,12.782,0,0,1,18.557-.018,14.174,14.174,0,0,1-.007,19.34Z" transform="translate(-595.547 -245.318)" fill="#013b4f"/>
    <path id="Path_201" data-name="Path 201" d="M983.933,206.727V183.6H975.26v15.184a32.464,32.464,0,0,1,5.948,4.812A34.5,34.5,0,0,1,983.933,206.727Z" transform="translate(-891.943 -177.73)" fill="#013b4f"/>
    <path id="Path_202" data-name="Path 202" d="M1094.566,181.236q-2.62-2.9-7.552-2.906a10.269,10.269,0,0,0-10.914,10.96v18.928h8.674V189.593q0-2.67,1.837-2.67,1.9,0,1.9,2.67v18.625h8.673V189.593Q1097.186,184.141,1094.566,181.236Z" transform="translate(-978.876 -173.187)" fill="#013b4f"/>
  </g>
</svg>
