<svg xmlns="http://www.w3.org/2000/svg" width="24.38" height="17.066" viewBox="0 0 24.38 17.066">
  <path id="vote_medium" d="M23.161,13.221H20.723v2.438h.853a.34.34,0,0,1,.366.3v.61a.34.34,0,0,1-.366.3H2.8a.34.34,0,0,1-.366-.3v-.61a.34.34,0,0,1,.366-.3h.853V13.221H1.219A1.218,1.218,0,0,0,0,14.44V18.1a1.218,1.218,0,0,0,1.219,1.219H23.161A1.218,1.218,0,0,0,24.38,18.1V14.44A1.218,1.218,0,0,0,23.161,13.221ZM19.5,15.659V3.48a1.23,1.23,0,0,0-1.23-1.23H6.11A1.233,1.233,0,0,0,4.876,3.48V15.659ZM8.045,8.726l.971-.964a.406.406,0,0,1,.579,0l1.573,1.585,3.627-3.6a.406.406,0,0,1,.579,0l.964.971a.406.406,0,0,1,0,.579l-4.887,4.846a.406.406,0,0,1-.579,0L8.045,9.3a.406.406,0,0,1,0-.579Z" transform="translate(0 -2.25)" fill="#013b4f"/>
</svg>
