<svg id="圖層_1" data-name="圖層 1" xmlns="http://www.w3.org/2000/svg" xmlns:xlink="http://www.w3.org/1999/xlink" viewBox="0 0 1920 319"><defs><style>.cls-1{fill:url(#未命名漸層_236);}.cls-2{fill:url(#未命名漸層_236-2);}</style><linearGradient id="未命名漸層_236" x1="481.39" y1="1250.83" x2="481.39" y2="916.43" gradientUnits="userSpaceOnUse"><stop offset="0" stop-color="#c7b299"/><stop offset="0.98" stop-color="#f6ece5"/></linearGradient><linearGradient id="未命名漸層_236-2" x1="1440.61" y1="1250.83" x2="1440.61" y2="916.43" xlink:href="#未命名漸層_236"/></defs><title>wave1</title><path class="cls-1" d="M961.78,986s-86,14.36-217.64-110.12C721.59,856.76,614.9,761,481.39,761S241.2,856.76,218.64,875.91C87,1000.4,1,986,1,986v94H961.48Z" transform="translate(-1 -761)"/><path class="cls-2" d="M1921,986s-86,14.36-217.64-110.12C1680.8,856.76,1574.12,761,1440.61,761s-240.2,95.76-262.75,114.91C1046.17,1000.4,960.21,986,960.21,986v94H1920.7Z" transform="translate(-1 -761)"/></svg>