<svg id="圖層_1" data-name="圖層 1" xmlns="http://www.w3.org/2000/svg" xmlns:xlink="http://www.w3.org/1999/xlink" viewBox="0 0 1920 425"><defs><style>.cls-1{fill:url(#未命名漸層_236);}.cls-2{fill:url(#未命名漸層_236-2);}.cls-3{fill:#e1d2c4;}</style><linearGradient id="未命名漸層_236" x1="481.39" y1="997.42" x2="481.39" y2="763.65" gradientUnits="userSpaceOnUse"><stop offset="0" stop-color="#c7b299"/><stop offset="0.98" stop-color="#f6ece5"/></linearGradient><linearGradient id="未命名漸層_236-2" x1="1440.61" y1="997.42" x2="1440.61" y2="763.65" xlink:href="#未命名漸層_236"/></defs><title>wave2</title><path class="cls-1" d="M961.78,812.31s-86,10-217.64-77C721.59,721.94,614.9,655,481.39,655s-240.2,66.94-262.75,80.33C87,822.35,1,812.31,1,812.31V878H961.48Z" transform="translate(-1 -655)"/><path class="cls-2" d="M1921,812.31s-86,10-217.64-77C1680.8,721.94,1574.12,655,1440.61,655s-240.2,66.94-262.75,80.33c-131.68,87-217.64,77-217.64,77V878H1920.7Z" transform="translate(-1 -655)"/><rect class="cls-3" y="223" width="1919" height="202"/></svg>