<svg id="圖層_1" data-name="圖層 1" xmlns="http://www.w3.org/2000/svg" xmlns:xlink="http://www.w3.org/1999/xlink" viewBox="0 0 1998 544.11"><defs><style>.cls-1{fill:url(#未命名漸層_236);}.cls-2{fill:url(#未命名漸層_236-2);}.cls-3{fill:#e1d2c4;}</style><linearGradient id="未命名漸層_236" x1="499.5" y1="923.56" x2="499.5" y2="658.94" gradientUnits="userSpaceOnUse"><stop offset="0" stop-color="#c7b299"/><stop offset="0.98" stop-color="#f6ece5"/></linearGradient><linearGradient id="未命名漸層_236-2" x1="1498.5" y1="923.56" x2="1498.5" y2="658.94" xlink:href="#未命名漸層_236"/></defs><title>wave.2svg</title><path class="cls-1" d="M999,714s-89.38,11.37-226.3-87.14c-23.45-15.16-134.38-90.93-273.2-90.93s-249.75,75.78-273.2,90.93C89.38,725.39,0,714,0,714v74.36H999Z" transform="translate(0 -535.94)"/><path class="cls-2" d="M1998,714s-89.38,11.37-226.3-87.14c-23.45-15.16-134.38-90.93-273.2-90.93s-249.75,75.78-273.2,90.93C1088.38,725.39,999,714,999,714v74.36h999Z" transform="translate(0 -535.94)"/><rect class="cls-3" y="245.73" width="1998" height="298.38"/></svg>