<svg xmlns="http://www.w3.org/2000/svg" width="24.374" height="24.374" viewBox="0 0 24.374 24.374">
  <g id="article" transform="translate(-293 -656.626)">
    <path id="Icon_material-library-books" data-name="Icon material-library-books" d="M5.437,7.875H3V24.937a2.445,2.445,0,0,0,2.437,2.437H22.5V24.937H5.437ZM24.937,3H10.312A2.445,2.445,0,0,0,7.875,5.437V20.062A2.445,2.445,0,0,0,10.312,22.5H24.937a2.445,2.445,0,0,0,2.437-2.437V5.437A2.445,2.445,0,0,0,24.937,3ZM23.718,13.968H11.531V11.531H23.718Zm-4.875,4.875H11.531V16.406h7.312Zm4.875-9.75H11.531V6.656H23.718Z" transform="translate(290 653.626)" fill="#013b4f"/>
  </g>
</svg>
