<svg xmlns="http://www.w3.org/2000/svg" width="20.732" height="13.822" viewBox="0 0 20.732 13.822">
  <g id="eyes_big" transform="translate(0 -4.438)">
    <path id="Icon_awesome-eye" data-name="Icon awesome-eye" d="M20.607,10.885A11.545,11.545,0,0,0,10.366,4.5,11.546,11.546,0,0,0,.125,10.886a1.164,1.164,0,0,0,0,1.051,11.545,11.545,0,0,0,10.241,6.385,11.546,11.546,0,0,0,10.241-6.386A1.164,1.164,0,0,0,20.607,10.885ZM10.366,16.594a5.183,5.183,0,1,1,5.183-5.183A5.183,5.183,0,0,1,10.366,16.594Zm0-8.638a3.431,3.431,0,0,0-.911.136A1.722,1.722,0,0,1,7.047,10.5a3.447,3.447,0,1,0,3.319-2.544Z" transform="translate(0 -0.062)" fill="#615e5e"/>
  </g>
</svg>
