<svg xmlns="http://www.w3.org/2000/svg" width="44.423" height="39.487" viewBox="0 0 44.423 39.487">
  <path id="group" d="M32.187,34.859V32.824c2.719-1.532,4.936-5.351,4.936-9.171,0-6.134,0-11.106-7.4-11.106s-7.4,4.972-7.4,11.106c0,3.82,2.217,7.639,4.936,9.171v2.035c-8.372.684-14.808,4.8-14.808,9.771H46.994c0-4.973-6.436-9.087-14.808-9.771Zm-17,.953a23.447,23.447,0,0,1,7.7-3.1,13.922,13.922,0,0,1-1.561-2.276,14.132,14.132,0,0,1-1.793-6.783c0-3.318,0-6.452,1.18-9.014a8.035,8.035,0,0,1,6.14-4.608c-.652-2.949-2.389-4.888-7.011-4.888-7.4,0-7.4,4.972-7.4,11.106,0,3.82,2.217,7.639,4.936,9.171v2.035c-8.372.684-14.808,4.8-14.808,9.771H13.33a15.808,15.808,0,0,1,1.858-1.414Z" transform="translate(-2.571 -5.143)" fill="#013b4f"/>
</svg>
