<svg xmlns="http://www.w3.org/2000/svg" width="11.18" height="10.315" viewBox="0 0 11.18 10.315">
  <g id="message_small" transform="translate(0 -1.489)">
    <path id="Icon_ionic-ios-text" data-name="Icon ionic-ios-text" d="M8.962,4.5c-3.086,0-5.587,2.02-5.587,4.513a4.511,4.511,0,0,0,3.017,4.008,3.511,3.511,0,0,1-.9,1.625.107.107,0,0,0,.1.169,4.322,4.322,0,0,0,1.37-.341A4.239,4.239,0,0,0,8.2,13.483a7.152,7.152,0,0,0,.766.043c3.086,0,5.587-2.02,5.587-4.513S12.049,4.5,8.962,4.5Z" transform="translate(-3.375 -3.011)" fill="#615e5e"/>
  </g>
</svg>
