<svg xmlns="http://www.w3.org/2000/svg" width="19.359" height="17.862" viewBox="0 0 19.359 17.862">
  <g id="message_big" transform="translate(0 -4.869)">
    <path id="Icon_ionic-ios-text" data-name="Icon ionic-ios-text" d="M13.05,4.5C7.705,4.5,3.375,8,3.375,12.314c0,3.019,2.121,5.637,5.224,6.94A6.079,6.079,0,0,1,7.04,22.068a.185.185,0,0,0,.167.293,7.484,7.484,0,0,0,2.372-.591,7.34,7.34,0,0,0,2.154-1.716,12.383,12.383,0,0,0,1.326.074c5.344,0,9.675-3.5,9.675-7.814S18.394,4.5,13.05,4.5Z" transform="translate(-3.375 0.369)" fill="#615e5e"/>
  </g>
</svg>
