<svg xmlns="http://www.w3.org/2000/svg" width="48.555" height="33.988" viewBox="0 0 48.555 33.988">
  <path id="vote_big" d="M46.127,24.1H41.271v4.855h1.7a.677.677,0,0,1,.728.607v1.214a.677.677,0,0,1-.728.607H5.584a.677.677,0,0,1-.728-.607V29.562a.677.677,0,0,1,.728-.607h1.7V24.1H2.428A2.425,2.425,0,0,0,0,26.527v7.283a2.425,2.425,0,0,0,2.428,2.428h43.7a2.425,2.425,0,0,0,2.428-2.428V26.527A2.425,2.425,0,0,0,46.127,24.1Zm-7.283,4.855V4.7a2.449,2.449,0,0,0-2.45-2.45H12.169A2.456,2.456,0,0,0,9.711,4.7V28.955ZM16.023,15.147l1.935-1.919a.808.808,0,0,1,1.153.008l3.133,3.156L29.467,9.23a.808.808,0,0,1,1.153.008l1.919,1.935a.808.808,0,0,1-.008,1.153L22.8,21.975a.808.808,0,0,1-1.153-.008L16.023,16.3a.808.808,0,0,1,0-1.153Z" transform="translate(0 -2.25)" fill="#013b4f"/>
</svg>
