<svg xmlns="http://www.w3.org/2000/svg" width="60.429" height="47" viewBox="0 0 60.429 47">
  <path id="creditcard" d="M0,44.214A5.037,5.037,0,0,0,5.036,49.25H55.393a5.037,5.037,0,0,0,5.036-5.036V25.75H0ZM20.143,37.08A1.263,1.263,0,0,1,21.4,35.821H35.67a1.263,1.263,0,0,1,1.259,1.259v4.2a1.263,1.263,0,0,1-1.259,1.259H21.4a1.263,1.263,0,0,1-1.259-1.259Zm-13.429,0a1.263,1.263,0,0,1,1.259-1.259h7.554a1.263,1.263,0,0,1,1.259,1.259v4.2a1.263,1.263,0,0,1-1.259,1.259H7.973a1.263,1.263,0,0,1-1.259-1.259ZM60.429,7.286v5.036H0V7.286A5.037,5.037,0,0,1,5.036,2.25H55.393A5.037,5.037,0,0,1,60.429,7.286Z" transform="translate(0 -2.25)" fill="#013b4f"/>
</svg>
