<svg xmlns="http://www.w3.org/2000/svg" width="184" height="63" viewBox="0 0 184 63">
  <g id="pay" transform="translate(-467 -705)">
    <g id="Group_1224" data-name="Group 1224" transform="translate(-537 -323)">
      <rect id="Rectangle_31" data-name="Rectangle 31" width="184" height="63" rx="10" transform="translate(1004 1028)" fill="#b3925b"/>
      <text id="信用卡" transform="translate(1101 1070)" fill="#fff" font-size="24" font-family="YuGothicUI-Regular, Yu Gothic UI"><tspan x="0" y="0">信用卡</tspan></text>
    </g>
    <path id="Icon_awesome-cc-mastercard" data-name="Icon awesome-cc-mastercard" d="M50.967,42.142a1.183,1.183,0,1,1-1.182-1.235A1.18,1.18,0,0,1,50.967,42.142Zm-32.8-1.235a1.238,1.238,0,1,0,1.15,1.235A1.167,1.167,0,0,0,18.164,40.907Zm12.4-.032a.978.978,0,0,0-1,.918h2.016A.97.97,0,0,0,30.566,40.876Zm11.378.032a1.236,1.236,0,1,0,1.182,1.235A1.167,1.167,0,0,0,41.943,40.907ZM53.12,43.662c0,.032.032.053.032.116,0,.032-.032.053-.032.116a.37.37,0,0,0-.053.084.136.136,0,0,1-.116.053c-.032.032-.053.032-.116.032a.209.209,0,0,1-.116-.032c-.032,0-.053-.032-.084-.053s-.053-.053-.053-.084a.192.192,0,0,1-.032-.116c0-.053,0-.084.032-.116a.2.2,0,0,1,.053-.116.37.37,0,0,1,.084-.053.192.192,0,0,1,.116-.032c.053,0,.084,0,.116.032.053.032.084.032.116.053S53.089,43.609,53.12,43.662Zm-.232.148c.053,0,.053-.032.084-.032a.128.128,0,0,0,0-.169c-.032,0-.053-.032-.116-.032h-.169v.369h.084V43.8H52.8l.116.148H53l-.116-.137ZM60.793,7.386V44.538A5.067,5.067,0,0,1,55.727,49.6H5.066A5.067,5.067,0,0,1,0,44.538V7.386A5.067,5.067,0,0,1,5.066,2.32H55.727A5.067,5.067,0,0,1,60.793,7.386ZM6.755,22.12A14.611,14.611,0,0,0,29.447,34.3a15.74,15.74,0,0,1,0-24.328A14.611,14.611,0,0,0,6.755,22.12ZM30.4,33.6a14.613,14.613,0,0,0,0-22.956A14.613,14.613,0,0,0,30.4,33.6ZM15.378,41.657a1.479,1.479,0,0,0-1.551-1.551,1.509,1.509,0,0,0-1.351.686,1.4,1.4,0,0,0-1.288-.686,1.34,1.34,0,0,0-1.119.57v-.464H9.2v3.873h.865c0-1.995-.264-3.187.95-3.187,1.077,0,.865,1.077.865,3.187h.834c0-1.931-.264-3.187.95-3.187,1.077,0,.865,1.055.865,3.187H15.4V41.657Zm4.739-1.446h-.834v.464a1.521,1.521,0,0,0-1.235-.57,2.041,2.041,0,0,0,0,4.074,1.463,1.463,0,0,0,1.235-.57v.486h.834Zm4.275,2.7c0-1.583-2.417-.865-2.417-1.6,0-.6,1.256-.507,1.953-.116l.348-.686c-.992-.644-3.187-.633-3.187.865s2.417.876,2.417,1.583c0,.665-1.425.612-2.185.084l-.369.665C22.133,44.506,24.391,44.337,24.391,42.913Zm3.736.982-.232-.718c-.4.222-1.288.464-1.288-.433V40.992H27.99v-.781H26.608V39.029h-.865v1.182h-.8v.77h.8v1.763c0,1.858,1.826,1.52,2.385,1.15Zm1.4-1.414h2.9c0-1.71-.781-2.385-1.836-2.385a1.9,1.9,0,0,0-1.921,2.037,2.106,2.106,0,0,0,3.567,1.5l-.4-.633c-.823.675-2.069.612-2.311-.517Zm6.238-2.269a1.239,1.239,0,0,0-1.6.464v-.464H33.3v3.873h.865V41.9a.881.881,0,0,1,1.351-.887Zm1.119,1.931c0-1.2,1.224-1.594,2.185-.887l.4-.686a2.089,2.089,0,1,0,0,3.166l-.4-.686C38.1,43.736,36.888,43.324,36.888,42.142Zm7.04-1.931h-.865v.464c-.876-1.161-3.156-.507-3.156,1.467,0,2.026,2.364,2.607,3.156,1.467v.486h.865Zm3.557,0a1.268,1.268,0,0,0-1.6.464v-.464h-.834v3.873h.834V41.9a.886.886,0,0,1,1.351-.887Zm4.253-1.573H50.9v2.037c-.865-1.15-3.156-.538-3.156,1.467,0,2.048,2.375,2.6,3.156,1.467v.486h.834Zm.8-7.926V31.2h.084v-.485h.2v-.084h-.486v.084h.2Zm.7,13.066a.322.322,0,0,0-.032-.169c-.032-.032-.053-.084-.084-.116s-.084-.053-.116-.084c-.053,0-.116-.032-.169-.032a1.122,1.122,0,0,1-.148.032.551.551,0,0,0-.116.084.165.165,0,0,0-.084.116.322.322,0,0,0-.032.169.307.307,0,0,0,.032.148.165.165,0,0,0,.084.116.366.366,0,0,0,.116.084.287.287,0,0,0,.148.032A.322.322,0,0,0,53,44.126c.032-.032.084-.053.116-.084s.053-.084.084-.116A.307.307,0,0,0,53.236,43.778Zm.338-13.161h-.148l-.169.369-.169-.369h-.148v.57h.084v-.433l.169.369h.116l.148-.369v.433h.116Zm.464-8.5A14.611,14.611,0,0,0,31.347,9.962a15.74,15.74,0,0,1,0,24.328A14.611,14.611,0,0,0,54.039,22.12Z" transform="translate(484 710.68)" fill="#fff"/>
  </g>
</svg>
