<svg xmlns="http://www.w3.org/2000/svg" width="160.867" height="186.946" viewBox="0 0 160.867 186.946">
  <g id="phone" transform="translate(0 45.154) rotate(-27)">
    <path id="Icon_metro-qrcode" data-name="Icon metro-qrcode" d="M17.571,3.514H3.514V17.571H17.571ZM21.085,0V21.085H0V0ZM7.028,7.028h7.028v7.028H7.028ZM52.713,3.514H38.656V17.571H52.713ZM56.227,0V21.085H35.142V0ZM42.17,7.028H49.2v7.028H42.17Zm-24.6,31.628H3.514V52.713H17.571Zm3.514-3.514V56.227H0V35.142ZM7.028,42.17h7.028V49.2H7.028ZM24.6,0h3.514V3.514H24.6Zm3.514,3.514h3.514V7.028H28.114ZM24.6,7.028h3.514v3.514H24.6Zm3.514,3.514h3.514v3.514H28.114ZM24.6,14.057h3.514v3.514H24.6Zm3.514,3.514h3.514v3.514H28.114ZM24.6,21.085h3.514V24.6H24.6Zm0,7.028h3.514v3.514H24.6Zm3.514,3.514h3.514v3.514H28.114ZM24.6,35.142h3.514v3.514H24.6Zm3.514,3.514h3.514V42.17H28.114ZM24.6,42.17h3.514v3.514H24.6Zm3.514,3.514h3.514V49.2H28.114ZM24.6,49.2h3.514v3.514H24.6Zm3.514,3.514h3.514v3.514H28.114Zm24.6-24.6h3.514v3.514H52.713Zm-49.2,0H7.028v3.514H3.514ZM7.028,24.6h3.514v3.514H7.028ZM0,24.6H3.514v3.514H0Zm14.057,0h3.514v3.514H14.057Zm3.514,3.514h3.514v3.514H17.571ZM21.085,24.6H24.6v3.514H21.085Zm10.543,3.514h3.514v3.514H31.628ZM35.142,24.6h3.514v3.514H35.142Zm3.514,3.514H42.17v3.514H38.656ZM42.17,24.6h3.514v3.514H42.17Zm3.514,3.514H49.2v3.514H45.685ZM49.2,24.6h3.514v3.514H49.2Zm3.514,10.543h3.514v3.514H52.713Zm-21.085,0h3.514v3.514H31.628Zm3.514-3.514h3.514v3.514H35.142Zm3.514,3.514H42.17v3.514H38.656Zm7.028,0H49.2v3.514H45.685ZM49.2,31.628h3.514v3.514H49.2ZM52.713,42.17h3.514v3.514H52.713Zm-21.085,0h3.514v3.514H31.628Zm3.514-3.514h3.514V42.17H35.142Zm7.028,0h3.514V42.17H42.17Zm3.514,3.514H49.2v3.514H45.685ZM49.2,38.656h3.514V42.17H49.2ZM52.713,49.2h3.514v3.514H52.713ZM35.142,45.685h3.514V49.2H35.142ZM38.656,49.2H42.17v3.514H38.656Zm3.514-3.514h3.514V49.2H42.17ZM45.685,49.2H49.2v3.514H45.685ZM35.142,52.713h3.514v3.514H35.142Zm7.028,0h3.514v3.514H42.17Zm7.028,0h3.514v3.514H49.2Z" transform="translate(21.904 35.062)" fill="#a39d9d"/>
    <path id="Icon_awesome-mobile-alt" data-name="Icon awesome-mobile-alt" d="M84.541,0H14.919A14.923,14.923,0,0,0,0,14.919v129.3a14.923,14.923,0,0,0,14.919,14.919H84.541a14.923,14.923,0,0,0,14.919-14.919V14.919A14.923,14.923,0,0,0,84.541,0ZM49.73,149.191a9.946,9.946,0,1,1,9.946-9.946A9.935,9.935,0,0,1,49.73,149.191Zm34.811-33.568a3.741,3.741,0,0,1-3.73,3.73H18.649a3.741,3.741,0,0,1-3.73-3.73V18.649a3.741,3.741,0,0,1,3.73-3.73H80.812a3.741,3.741,0,0,1,3.73,3.73Z" transform="translate(0 0)" fill="#767171"/>
  </g>
</svg>
