<svg xmlns="http://www.w3.org/2000/svg" width="90" height="90" viewBox="0 0 90 90">
  <g id="user_medium" transform="translate(-163 -1153)">
    <circle id="Ellipse_19" data-name="Ellipse 19" cx="45" cy="45" r="45" transform="translate(163 1153)" fill="#b0a7a7" opacity="0.65"/>
    <path id="Icon_awesome-user-alt" data-name="Icon awesome-user-alt" d="M26.839,30.194a15.1,15.1,0,1,0-15.1-15.1A15.1,15.1,0,0,0,26.839,30.194Zm13.42,3.355H34.482a18.25,18.25,0,0,1-15.286,0H13.42A13.419,13.419,0,0,0,0,46.969v1.677a5.034,5.034,0,0,0,5.032,5.032H48.646a5.034,5.034,0,0,0,5.032-5.032V46.969A13.419,13.419,0,0,0,40.259,33.549Z" transform="translate(180.782 1170.782)" fill="#fff"/>
  </g>
</svg>
