<svg xmlns="http://www.w3.org/2000/svg" width="170" height="170" viewBox="0 0 170 170">
  <g id="user_big" transform="translate(-163 -1153)">
    <circle id="Ellipse_19" data-name="Ellipse 19" cx="85" cy="85" r="85" transform="translate(163 1153)" fill="#b0a7a7" opacity="0.65"/>
    <path id="Icon_awesome-user-alt" data-name="Icon awesome-user-alt" d="M52.925,59.54a29.77,29.77,0,1,0-29.77-29.77A29.778,29.778,0,0,0,52.925,59.54Zm26.462,6.616H68a35.988,35.988,0,0,1-30.142,0H26.462A26.46,26.46,0,0,0,0,92.618v3.308a9.926,9.926,0,0,0,9.923,9.923h86a9.926,9.926,0,0,0,9.923-9.923V92.618A26.46,26.46,0,0,0,79.387,66.156Z" transform="translate(195.075 1185.075)" fill="#fff"/>
  </g>
</svg>
