<svg xmlns="http://www.w3.org/2000/svg" width="16.325" height="11.427" viewBox="0 0 16.325 11.427">
  <path id="vote_small" d="M15.509,9.6H13.876v1.632h.571a.228.228,0,0,1,.245.2v.408a.228.228,0,0,1-.245.2H1.877a.228.228,0,0,1-.245-.2v-.408a.228.228,0,0,1,.245-.2h.571V9.6H.816A.815.815,0,0,0,0,10.412v2.449a.815.815,0,0,0,.816.816H15.509a.815.815,0,0,0,.816-.816V10.412A.815.815,0,0,0,15.509,9.6ZM13.06,11.229V3.074a.824.824,0,0,0-.824-.824H4.091a.826.826,0,0,0-.826.824v8.155ZM5.387,6.586l.65-.645a.272.272,0,0,1,.388,0L7.479,7,9.907,4.6a.272.272,0,0,1,.388,0l.645.65a.272.272,0,0,1,0,.388L7.665,8.882a.272.272,0,0,1-.388,0L5.387,6.974a.272.272,0,0,1,0-.388Z" transform="translate(0 -2.25)" fill="#013b4f"/>
</svg>
