<svg xmlns="http://www.w3.org/2000/svg" width="20" height="30.481" viewBox="0 0 20 30.481">
  <path id="hand-point-right" d="M30.481,11.565a2.541,2.541,0,0,1-2.667,2.283H21.87a2.352,2.352,0,0,1-.375,3.695,2.233,2.233,0,0,1-.979,3.246c.534,2.559-1.307,3.712-4.322,3.712-.163,0-.79-.011-.953-.01-3.689.009-4.578-1.618-7.366-2A1.313,1.313,0,0,1,6.668,21.26V12.326h0a2.507,2.507,0,0,1,1.695-2.284c1.72-.677,5.68-2.554,6.4-4.027A2.534,2.534,0,0,1,17.146,4.5c2.037,0,3.438,1.828,2.627,3.485a6.9,6.9,0,0,1-.843,1.3h8.884a2.583,2.583,0,0,1,2.667,2.283Zm-24.766.018v10a1.348,1.348,0,0,1-1.429,1.25H1.429A1.348,1.348,0,0,1,0,21.583v-10a1.348,1.348,0,0,1,1.429-1.25H4.286A1.348,1.348,0,0,1,5.715,11.583Zm-1.667,8.75a1.124,1.124,0,0,0-1.191-1.042,1.051,1.051,0,1,0,0,2.083A1.124,1.124,0,0,0,4.048,20.333Z" transform="translate(24.5) rotate(90)" fill="#b3925b"/>
</svg>
