<svg xmlns="http://www.w3.org/2000/svg" width="16.898" height="22" viewBox="0 0 16.898 22">
  <path id="milktea_icon" d="M-237.657,1132.028a1.051,1.051,0,0,0-.922-1.145c-.258-.034-.343-.134-.345-.418,0-.344.005-.906,0-1.25a.548.548,0,0,0-.037-.192h.888a.376.376,0,0,0,.415-.373.361.361,0,0,0-.4-.363c-.379,0-.758,0-1.137,0h-.6c.154-.3.281-.547.41-.795q.769-1.477,1.539-2.954a.406.406,0,0,0-.157-.61q-.716-.455-1.429-.917a.337.337,0,0,0-.529.134c-.06.1-.113.212-.169.318-.808,1.542-1.619,3.081-2.417,4.628a.3.3,0,0,1-.31.2q-3.811-.006-7.623,0c-.251,0-.5,0-.752.008a.325.325,0,0,0-.316.316.359.359,0,0,0,.259.4.908.908,0,0,0,.232.02h.4a.586.586,0,0,0-.037.2c0,.312,0,.843,0,1.154,0,.381-.061.452-.394.505a.935.935,0,0,0-.8.687,1.519,1.519,0,0,0-.071.484.244.244,0,0,1-.2.289c-.287.088-.57.192-.854.294a2.411,2.411,0,0,0-1.527,2.32c0,1.312-.014,2.624,0,3.935a2.454,2.454,0,0,0,.991,2.05c.468.343.963.642,1.45.954a.266.266,0,0,1,.134.259c0,.446,0,.891,0,1.337a1.3,1.3,0,0,0,1.3,1.439h5.853q2.918,0,5.836,0a1.3,1.3,0,0,0,.374-.038,1.367,1.367,0,0,0,.959-1.405q0-3.782,0-7.565C-237.655,1134.626-237.653,1133.327-237.657,1132.028Zm-14.322,7.91c-.021,0-.037,0-.049-.01-.273-.208-.553-.4-.815-.63a1.245,1.245,0,0,1-.365-.97c0-1-.01-2.008,0-3.012a1.2,1.2,0,0,1,.6-1.124c.2-.1.4-.17.621-.261Zm7.653,1.525a1.647,1.647,0,0,1-1.576-1.69,1.638,1.638,0,0,1,1.589-1.7,1.666,1.666,0,0,1,1.56,1.69A1.653,1.653,0,0,1-244.326,1141.464Zm3.426-4.346a.932.932,0,0,1,.894.956.937.937,0,0,1-.882.958.932.932,0,0,1-.906-.944A.935.935,0,0,1-240.9,1137.118Zm.019,5.842a1.445,1.445,0,0,1-1.406-1.464,1.45,1.45,0,0,1,1.386-1.5,1.446,1.446,0,0,1,1.387,1.483A1.452,1.452,0,0,1-240.881,1142.96Z" transform="translate(254.553 -1122.935)" fill="#b3925b"/>
</svg>
