<svg xmlns="http://www.w3.org/2000/svg" width="21.364" height="22" viewBox="0 0 21.364 22">
  <g id="tea_icon" transform="translate(-4796.06 -4121.586)">
    <g id="Group_1560" data-name="Group 1560" transform="translate(4796.061 4121.586)">
      <path id="Path_1213" data-name="Path 1213" d="M165.672,1169.193v.269q0,3.187,0,6.375a3.064,3.064,0,0,1-2.917,2.9c-.708.055-1.424.04-2.136.041q-3.791.005-7.582,0a3.279,3.279,0,0,1-3.149-1.888,2.8,2.8,0,0,1-.235-1.078c-.016-3.447-.008-6.893-.007-10.34,0-1.322-.008-2.644,0-3.965a.988.988,0,0,1,.169-.513c.12-.18.357-.183.577-.183q2.947,0,5.894,0l8.652,0c.494,0,.729.208.729.651,0,.512,0,1.024-.006,1.535,0,.158.049.21.228.207.586-.009,1.173,0,1.759,0a3.126,3.126,0,0,1,3.35,3.161,3.159,3.159,0,0,1-3.355,2.833C167,1169.19,166.354,1169.193,165.672,1169.193Zm0-3.013c0,.54,0,1.079,0,1.619,0,.146.045.2.214.2.617-.008,1.235.009,1.852-.009a1.8,1.8,0,1,0-.027-3.575c-.609-.012-1.219,0-1.828-.007-.173,0-.213.055-.211.2C165.678,1165.129,165.673,1165.654,165.673,1166.18Z" transform="translate(-149.646 -1156.783)" fill="#467715"/>
      <path id="Path_1214" data-name="Path 1214" d="M264.839,1100.818c0-.334,0-.668,0-1a.486.486,0,0,1,.5-.516.477.477,0,0,1,.506.505q.007,1.011,0,2.022a.5.5,0,0,1-1-.007C264.836,1101.486,264.839,1101.152,264.839,1100.818Z" transform="translate(-254.656 -1099.3)" fill="#467715"/>
      <path id="Path_1215" data-name="Path 1215" d="M203.5,1100.825c0-.334,0-.668,0-1a.5.5,0,1,1,1-.008q.01,1.02,0,2.039a.46.46,0,0,1-.508.478.453.453,0,0,1-.493-.488C203.5,1101.5,203.5,1101.165,203.5,1100.825Z" transform="translate(-198.741 -1099.317)" fill="#467715"/>
      <path id="Path_1216" data-name="Path 1216" d="M235.094,1100.824c0,.328.006.656,0,.984a.473.473,0,0,1-.543.516.447.447,0,0,1-.463-.467q-.014-1.028,0-2.057a.472.472,0,0,1,.5-.49.479.479,0,0,1,.5.495C235.1,1100.144,235.094,1100.485,235.094,1100.824Z" transform="translate(-226.615 -1099.309)" fill="#467715"/>
    </g>
  </g>
</svg>
